<?xml version="1.0" encoding="UTF-8" standalone="no"?>
<!-- Created with Inkscape (http://www.inkscape.org/) -->

<svg
   xmlns:dc="http://purl.org/dc/elements/1.1/"
   xmlns:cc="http://creativecommons.org/ns#"
   xmlns:rdf="http://www.w3.org/1999/02/22-rdf-syntax-ns#"
   xmlns:svg="http://www.w3.org/2000/svg"
   xmlns="http://www.w3.org/2000/svg"
   xmlns:xlink="http://www.w3.org/1999/xlink"
   xmlns:sodipodi="http://sodipodi.sourceforge.net/DTD/sodipodi-0.dtd"
   xmlns:inkscape="http://www.inkscape.org/namespaces/inkscape"
   width="128"
   height="128"
   id="svg2"
   sodipodi:version="0.32"
   inkscape:version="0.48.3.1 r9886"
   version="1.0"
   sodipodi:docname="application-pdf.svg"
   inkscape:output_extension="org.inkscape.output.svg.inkscape">
  <defs
     id="defs4">
    <linearGradient
       inkscape:collect="always"
       id="linearGradient4132">
      <stop
         style="stop-color:#f2f2f2;stop-opacity:1;"
         offset="0"
         id="stop4134" />
      <stop
         style="stop-color:#f2f2f2;stop-opacity:0;"
         offset="1"
         id="stop4136" />
    </linearGradient>
    <linearGradient
       inkscape:collect="always"
       id="linearGradient3155">
      <stop
         style="stop-color:#303030;stop-opacity:1;"
         offset="0"
         id="stop3157" />
      <stop
         style="stop-color:#303030;stop-opacity:0;"
         offset="1"
         id="stop3159" />
    </linearGradient>
    <linearGradient
       inkscape:collect="always"
       id="linearGradient6067">
      <stop
         style="stop-color:#ffffff;stop-opacity:1;"
         offset="0"
         id="stop6069" />
      <stop
         style="stop-color:#ffffff;stop-opacity:0;"
         offset="1"
         id="stop6071" />
    </linearGradient>
    <linearGradient
       inkscape:collect="always"
       id="linearGradient3142">
      <stop
         style="stop-color:#303030;stop-opacity:1;"
         offset="0"
         id="stop3144" />
      <stop
         style="stop-color:#303030;stop-opacity:0;"
         offset="1"
         id="stop3146" />
    </linearGradient>
    <linearGradient
       inkscape:collect="always"
       xlink:href="#linearGradient3142"
       id="linearGradient3148"
       x1="92.804863"
       y1="75.855133"
       x2="92.804863"
       y2="110.71667"
       gradientUnits="userSpaceOnUse"
       gradientTransform="matrix(1.6258627,0,0,1.6258627,-28.787153,-52.145846)" />
    <linearGradient
       inkscape:collect="always"
       xlink:href="#linearGradient6067"
       id="linearGradient6073"
       x1="29.731594"
       y1="96.211563"
       x2="29.731594"
       y2="119.78299"
       gradientUnits="userSpaceOnUse" />
    <linearGradient
       inkscape:collect="always"
       xlink:href="#linearGradient3155"
       id="linearGradient3161"
       x1="100.75668"
       y1="85.389313"
       x2="100.75668"
       y2="124.82345"
       gradientUnits="userSpaceOnUse" />
    <linearGradient
       inkscape:collect="always"
       xlink:href="#linearGradient4132"
       id="linearGradient4138"
       x1="96.899597"
       y1="-101.65641"
       x2="96.899597"
       y2="-115.67227"
       gradientUnits="userSpaceOnUse" />
  </defs>
  <sodipodi:namedview
     id="base"
     pagecolor="#ffffff"
     bordercolor="#666666"
     borderopacity="1.0"
     inkscape:pageopacity="0.0"
     inkscape:pageshadow="2"
     inkscape:zoom="11.2"
     inkscape:cx="53.420431"
     inkscape:cy="39.847847"
     inkscape:document-units="px"
     inkscape:current-layer="g4452"
     showgrid="true"
     width="128px"
     height="128px"
     showguides="true"
     inkscape:guide-bbox="true"
     inkscape:window-width="1598"
     inkscape:window-height="879"
     inkscape:window-x="0"
     inkscape:window-y="0"
     inkscape:window-maximized="1">
    <inkscape:grid
       type="xygrid"
       id="grid3004" />
  </sodipodi:namedview>
  <metadata
     id="metadata7">
    <rdf:RDF>
      <cc:Work
         rdf:about="">
        <dc:format>image/svg+xml</dc:format>
        <dc:type
           rdf:resource="http://purl.org/dc/dcmitype/StillImage" />
        <dc:title />
      </cc:Work>
    </rdf:RDF>
  </metadata>
  <g
     inkscape:label="Livello 1"
     inkscape:groupmode="layer"
     id="layer1">
    <path
       style="fill:#ffffff;fill-opacity:1;stroke:none;stroke-width:0.2;stroke-linecap:round;stroke-linejoin:round;stroke-miterlimit:4;stroke-dashoffset:0;stroke-opacity:1"
       d="M 29.608156,13.050445 L 76.889382,13.029759 L 103.95139,39.997785 L 103.85343,109.41071 C 103.85343,112.49069 101.37387,114.97024 98.293882,114.97024 L 29.608156,114.97024 C 26.528165,114.97024 24.048608,112.49069 24.048608,109.41071 L 24.048608,18.60999 C 24.048608,15.530004 26.528165,13.050445 29.608156,13.050445 z "
       id="path3275"
       sodipodi:nodetypes="ccccccccc" />
    <g
       id="g4452"
       transform="translate(-2.0166215,7.230244)">
      <path
         sodipodi:nodetypes="ccccccccc"
         id="rect2162"
         d="M 36.110672,12.46579 L 77.22478,12.447802 L 100.75696,35.898259 L 100.67178,96.257326 C 100.67178,98.935577 98.515638,101.09171 95.837388,101.09171 L 36.110672,101.09171 C 33.432419,101.09171 31.276283,98.935577 31.276283,96.257326 L 31.276283,17.300177 C 31.276283,14.621928 33.432419,12.46579 36.110672,12.46579 z "
         style="fill:#303030;fill-opacity:1;stroke:none;stroke-width:0.2;stroke-linecap:round;stroke-linejoin:round;stroke-miterlimit:4;stroke-dashoffset:0;stroke-opacity:1" />
      <text
         id="text8053"
         y="95.769966"
         x="96.675827"
         style="font-size:12.00002575px;font-style:normal;font-weight:normal;text-align:end;text-anchor:end;fill:#f2f2f2;fill-opacity:1;stroke:none;font-family:Bitstream Vera Sans"
         xml:space="preserve"
         transform="scale(1.0000022,0.99999781)"><tspan
           y="95.769966"
           x="96.675827"
           id="tspan8055"
           sodipodi:role="line"
           dx="0 0 0.5">PDF</tspan></text>
      <path
         style="fill:#ffffff;fill-opacity:1"
         inkscape:connector-curvature="0"
         id="path900"
         d="m 66.060632,22.823039 c -1.469876,0.19717 -2.280323,0.767219 -2.987463,3.212717 -0.707128,2.4455 -0.103252,6.869878 0.787567,10.268838 0.368494,1.131651 0.852035,2.227952 1.278882,3.344947 -0.270973,1.674073 -0.596263,3.347062 -1.047862,4.99043 -1.728143,6.712036 -3.681775,13.457324 -6.575012,19.777431 -3.947848,1.875994 -7.788944,3.960156 -11.438897,6.353686 -2.200101,1.338151 -6.242785,5.119782 -2.596217,7.176601 2.047379,1.18796 4.195284,0.977897 6.1519,0.07218 0.978307,-0.452863 1.904156,-1.09198 2.752326,-1.796827 0.848143,-0.704867 1.624804,-1.479943 2.271164,-2.255851 1.992115,-2.441424 3.708459,-5.054525 5.224623,-7.786723 5.911877,-2.563761 12.009734,-4.707869 18.280215,-6.179616 2.587417,2.302772 6.392709,4.635718 9.671472,2.411615 3.277686,-1.441007 2.783088,-5.836336 -0.934329,-5.936072 -2.458963,-0.51743 -4.909538,-0.244326 -7.333166,0.273523 -1.039365,-1.219319 -2.002165,-2.528574 -2.890695,-3.754699 -2.856795,-4.647387 -5.486814,-9.432024 -7.945545,-14.304105 0.734127,-4.433311 1.491648,-9.363871 0.982771,-12.58013 -0.508876,-3.216254 -2.082474,-3.498449 -3.651734,-3.28795 z m -0.525876,3.32377 c 0.405708,-0.868654 1.413836,0.06849 1.382497,1.23697 -0.03136,1.168478 -0.248699,3.782605 -1.08939,4.503974 -0.599011,-1.900012 -0.698807,-4.872287 -0.293107,-5.740944 z m 1.942751,18.876831 c 2.234961,4.576298 4.96246,8.911546 8.388678,12.667782 -1.026152,0.281781 -2.073211,0.548221 -3.085739,0.792373 -3.740528,1.141237 -7.409378,2.521503 -11.019195,4.044854 2.617245,-5.560041 4.371971,-11.510969 5.716256,-17.505009 z M 83.0843,59.183142 c 1.313206,0.0029 2.357932,0.348339 2.084454,1.58781 -1.103581,-0.294567 -2.061625,-0.842766 -2.964404,-1.504337 0.29802,-0.0267 0.597129,-0.0841 0.87995,-0.08348 z m -27.447719,8.932975 c -0.285844,0.528496 -0.516229,1.080523 -0.819405,1.600639 -1.917974,2.854721 -4.68636,6.436818 -8.440689,6.326338 -1.084468,-3.149286 3.533525,-4.843992 5.692817,-6.233507 1.174865,-0.591064 2.376362,-1.130362 3.567277,-1.69347 z" />
    </g>
  </g>
</svg>
