<?xml version="1.0" encoding="UTF-8" standalone="no"?>
<!-- Created with Inkscape (http://www.inkscape.org/) -->

<svg
   xmlns:dc="http://purl.org/dc/elements/1.1/"
   xmlns:cc="http://creativecommons.org/ns#"
   xmlns:rdf="http://www.w3.org/1999/02/22-rdf-syntax-ns#"
   xmlns:svg="http://www.w3.org/2000/svg"
   xmlns="http://www.w3.org/2000/svg"
   xmlns:xlink="http://www.w3.org/1999/xlink"
   xmlns:sodipodi="http://sodipodi.sourceforge.net/DTD/sodipodi-0.dtd"
   xmlns:inkscape="http://www.inkscape.org/namespaces/inkscape"
   width="128"
   height="128"
   id="svg2"
   sodipodi:version="0.32"
   inkscape:version="0.48.3.1 r9886"
   version="1.0"
   sodipodi:docname="text-sql.svg"
   inkscape:output_extension="org.inkscape.output.svg.inkscape">
  <defs
     id="defs4">
    <linearGradient
       inkscape:collect="always"
       id="linearGradient4132">
      <stop
         style="stop-color:#f2f2f2;stop-opacity:1;"
         offset="0"
         id="stop4134" />
      <stop
         style="stop-color:#f2f2f2;stop-opacity:0;"
         offset="1"
         id="stop4136" />
    </linearGradient>
    <linearGradient
       inkscape:collect="always"
       id="linearGradient3155">
      <stop
         style="stop-color:#303030;stop-opacity:1;"
         offset="0"
         id="stop3157" />
      <stop
         style="stop-color:#303030;stop-opacity:0;"
         offset="1"
         id="stop3159" />
    </linearGradient>
    <linearGradient
       inkscape:collect="always"
       id="linearGradient6067">
      <stop
         style="stop-color:#ffffff;stop-opacity:1;"
         offset="0"
         id="stop6069" />
      <stop
         style="stop-color:#ffffff;stop-opacity:0;"
         offset="1"
         id="stop6071" />
    </linearGradient>
    <linearGradient
       inkscape:collect="always"
       id="linearGradient3142">
      <stop
         style="stop-color:#303030;stop-opacity:1;"
         offset="0"
         id="stop3144" />
      <stop
         style="stop-color:#303030;stop-opacity:0;"
         offset="1"
         id="stop3146" />
    </linearGradient>
    <linearGradient
       inkscape:collect="always"
       xlink:href="#linearGradient3142"
       id="linearGradient3148"
       x1="92.804863"
       y1="75.855133"
       x2="92.804863"
       y2="110.71667"
       gradientUnits="userSpaceOnUse"
       gradientTransform="matrix(1.6258627,0,0,1.6258627,-28.787153,-52.145846)" />
    <linearGradient
       inkscape:collect="always"
       xlink:href="#linearGradient6067"
       id="linearGradient6073"
       x1="29.731594"
       y1="96.211563"
       x2="29.731594"
       y2="119.78299"
       gradientUnits="userSpaceOnUse" />
    <linearGradient
       inkscape:collect="always"
       xlink:href="#linearGradient3155"
       id="linearGradient3161"
       x1="100.75668"
       y1="85.389313"
       x2="100.75668"
       y2="124.82345"
       gradientUnits="userSpaceOnUse" />
    <linearGradient
       inkscape:collect="always"
       xlink:href="#linearGradient4132"
       id="linearGradient4138"
       x1="96.899597"
       y1="-101.65641"
       x2="96.899597"
       y2="-115.67227"
       gradientUnits="userSpaceOnUse"
       gradientTransform="translate(-2.2728432,0)" />
    <linearGradient
       x1="1322.0002"
       y1="-1568.5111"
       x2="1419.0002"
       y2="-1568.5111"
       id="linearGradient21875"
       xlink:href="#linearGradient8663"
       gradientUnits="userSpaceOnUse"
       gradientTransform="translate(0.022825,4.5e-5)" />
    <linearGradient
       id="linearGradient8663">
      <stop
         id="stop8665"
         style="stop-color:#9207a7;stop-opacity:1"
         offset="0" />
      <stop
         id="stop8667"
         style="stop-color:#c658bc;stop-opacity:1"
         offset="0.27254906" />
      <stop
         id="stop8669"
         style="stop-color:#a42eb6;stop-opacity:1"
         offset="0.50966245" />
      <stop
         id="stop8671"
         style="stop-color:#b415cd;stop-opacity:1"
         offset="0.83376038" />
      <stop
         id="stop8673"
         style="stop-color:#950ba8;stop-opacity:1"
         offset="1" />
    </linearGradient>
  </defs>
  <sodipodi:namedview
     id="base"
     pagecolor="#ffffff"
     bordercolor="#666666"
     borderopacity="1.0"
     inkscape:pageopacity="0.0"
     inkscape:pageshadow="2"
     inkscape:zoom="5.6"
     inkscape:cx="53.567184"
     inkscape:cy="68.076883"
     inkscape:document-units="px"
     inkscape:current-layer="layer1"
     showgrid="true"
     width="128px"
     height="128px"
     showguides="true"
     inkscape:guide-bbox="true"
     inkscape:window-width="1598"
     inkscape:window-height="879"
     inkscape:window-x="0"
     inkscape:window-y="0"
     inkscape:window-maximized="1" />
  <metadata
     id="metadata7">
    <rdf:RDF>
      <cc:Work
         rdf:about="">
        <dc:format>image/svg+xml</dc:format>
        <dc:type
           rdf:resource="http://purl.org/dc/dcmitype/StillImage" />
        <dc:title></dc:title>
      </cc:Work>
    </rdf:RDF>
  </metadata>
  <g
     inkscape:label="Livello 1"
     inkscape:groupmode="layer"
     id="layer1">
    <path
       style="fill:#ffffff;fill-opacity:1;stroke:none;stroke-width:0.2;stroke-linecap:round;stroke-linejoin:round;stroke-miterlimit:4;stroke-dashoffset:0;stroke-opacity:1"
       d="M 29.608158,13.050443 L 76.889382,13.029757 L 103.95139,39.997783 L 103.85343,109.41071 C 103.85343,112.49069 101.37387,114.97024 98.293882,114.97024 L 29.608158,114.97024 C 26.528167,114.97024 24.04861,112.49069 24.04861,109.41071 L 24.04861,18.609988 C 24.04861,15.530002 26.528167,13.050443 29.608158,13.050443 z "
       id="path3275"
       sodipodi:nodetypes="ccccccccc" />
    <path
       style="fill:#303030;fill-opacity:1;stroke:none;stroke-width:0.2;stroke-linecap:round;stroke-linejoin:round;stroke-miterlimit:4;stroke-dashoffset:0;stroke-opacity:1"
       d="M 34.094051,19.696034 L 75.208158,19.678046 L 98.740339,43.128503 L 98.655158,103.48757 C 98.655158,106.16582 96.499016,108.32195 93.820767,108.32195 L 34.094051,108.32195 C 31.415798,108.32195 29.259661,106.16582 29.259661,103.48757 L 29.259661,24.530421 C 29.259661,21.852172 31.415798,19.696034 34.094051,19.696034 z "
       id="rect2162"
       sodipodi:nodetypes="ccccccccc" />
    <text
       xml:space="preserve"
       style="font-size:12px;font-style:normal;font-weight:normal;text-align:end;text-anchor:end;fill:#f2f2f2;fill-opacity:1;stroke:none;font-family:Bitstream Vera Sans"
       x="94.76693"
       y="103.28417"
       id="text8053"><tspan
         sodipodi:role="line"
         id="tspan8055"
         x="94.76693"
         y="103.28417">CSV</tspan></text>
    <g
       id="g4516"
       transform="translate(0,4)">
      <path
         sodipodi:type="inkscape:offset"
         inkscape:radius="0.66861314"
         inkscape:original="M 64 39.34375 C 59.069238 39.34375 54.943397 39.850406 51.46875 40.71875 C 49.843801 41.124829 48.503959 41.709667 47.5625 42.3125 C 46.62104 42.915308 46.03467 43.638045 46.03125 44.5 C 46.00258 51.719792 46 58.575315 46 64.3125 C 46 65.155311 46.618874 65.895716 47.5625 66.5 C 48.506128 67.104234 49.818946 67.62414 51.4375 68.0625 C 54.674607 68.939219 59.102932 69.46875 64 69.46875 C 68.897067 69.46875 73.325393 68.939219 76.5625 68.0625 C 78.181054 67.62414 79.525089 67.104259 80.46875 66.5 C 81.412378 65.895768 82 65.155311 82 64.3125 L 82 44.46875 C 82 43.606821 81.378921 42.915308 80.4375 42.3125 C 79.496041 41.709667 78.17918 41.156599 76.5625 40.71875 C 73.329216 39.843023 68.897986 39.34375 64 39.34375 z M 64 40.0625 C 68.845778 40.0548 73.225156 40.615655 76.375 41.46875 C 77.9499 41.895298 79.219033 42.428667 80.0625 42.96875 C 80.905964 43.508884 81.324535 44.044966 81.28125 44.5 C 81.20412 45.310201 80.364044 45.868801 79.75 46.21875 C 78.753942 46.786326 77.542814 47.189926 76.46875 47.46875 C 72.801571 48.420641 69.146385 48.784731 65.625 48.875 C 60.752586 48.95315 55.922297 48.611818 51.46875 47.46875 C 50.435325 47.199319 49.54072 46.849472 48.65625 46.40625 C 47.862276 46.008366 46.798629 45.369895 46.71875 44.5 C 46.67575 44.031984 47.093997 43.508833 47.9375 42.96875 C 48.780964 42.428616 50.032573 41.824529 51.625 41.46875 C 56.006936 40.489748 60.313937 40.069322 64 40.0625 z M 46.75 46 C 46.982569 46.233435 47.235969 46.458098 47.5625 46.65625 C 48.771336 47.389778 50.273068 47.958422 51.46875 48.25 C 56.283844 49.366951 61.060766 49.728414 65.65625 49.59375 C 69.371672 49.476397 73.121176 49.223579 76.5625 48.25 C 78.265451 47.768186 80.076495 47.174787 81.28125 46 L 81.28125 50.71875 C 81.28125 50.932584 81.26467 51.192045 81.21875 51.375 C 81.118377 51.781107 80.725672 52.262454 80 52.6875 C 78.800758 53.389919 77.4739 53.81102 76.3125 54.125 C 72.185703 55.131648 67.900461 55.494527 64 55.5 C 59.790792 55.46767 55.355082 55.100921 51.625 54.125 C 50.024375 53.619893 48.407431 53.16185 47.25 52.09375 C 46.983504 51.845042 46.846872 51.604821 46.78125 51.375 C 46.72184 51.167022 46.75 50.938006 46.75 50.71875 L 46.75 46 z M 46.75 52.625 C 46.892605 52.766028 47.043266 52.8988 47.21875 53.03125 C 48.627024 54.004372 50.381134 54.589704 51.90625 54.96875 C 56.124901 55.926318 59.853146 56.24188 64 56.25 C 68.171549 56.16447 72.24936 55.955721 76.09375 54.96875 C 77.454956 54.613659 78.926544 54.090172 80.03125 53.53125 C 80.451551 53.31869 81.120465 52.773362 81.28125 52.625 L 81.28125 57.34375 C 81.28125 57.557583 81.26467 57.785793 81.21875 57.96875 C 81.118376 58.374855 80.713398 58.835942 80 59.28125 C 78.424288 60.205675 76.548833 60.736775 74.90625 61.09375 C 71.089086 61.834557 67.593034 62.119806 64 62.125 C 62.182706 62.125 60.425853 62.061272 58.78125 61.90625 C 55.088572 61.454832 51.817391 61.124387 48.6875 59.6875 C 48.154069 59.440319 47.646527 59.082445 47.25 58.71875 C 46.981336 58.472332 46.853082 58.196737 46.78125 57.96875 C 46.7537 57.88144 46.75058 57.79825 46.75 57.71875 C 46.73702 56.023251 46.75 54.320523 46.75 52.625 z M 46.75 59.25 C 47.325243 59.816201 48.085565 60.239087 48.78125 60.53125 C 51.968901 61.853048 55.712426 62.372142 58.71875 62.625 C 60.53204 62.773919 62.319647 62.84426 64 62.84375 C 68.177169 62.77629 72.240063 62.522818 76.09375 61.5625 C 77.643812 61.141579 79.09393 60.694012 80.375 59.9375 C 80.718216 59.733595 81.011081 59.500618 81.28125 59.25 L 81.28125 63.96875 L 81.28125 64.3125 C 81.28125 64.788713 80.903759 65.336394 80.0625 65.875 C 79.221239 66.413709 77.947991 66.91771 76.375 67.34375 C 73.228905 68.195775 68.843277 68.75 64 68.75 C 59.156686 68.75 54.771058 68.195826 51.625 67.34375 C 50.05197 66.917762 48.778763 66.413683 47.9375 65.875 C 47.09624 65.336343 46.75 64.788713 46.75 64.3125 L 46.75 59.25 z "
         style="font-size:medium;font-style:normal;font-variant:normal;font-weight:normal;font-stretch:normal;text-indent:0pt;text-align:start;text-decoration:none;line-height:normal;letter-spacing:normal;word-spacing:normal;text-transform:none;direction:ltr;text-anchor:start;color:#000000;fill:#ffffff;fill-opacity:1;fill-rule:nonzero;stroke:none;stroke-width:2;marker:none;visibility:visible;display:inline;overflow:visible;font-family:Sans"
         id="path4519"
         d="m 64,38.6875 c -4.976564,0 -9.151421,0.491304 -12.6875,1.375 -1.687572,0.421729 -3.106317,1.035219 -4.125,1.6875 -1.039671,0.665691 -1.807883,1.586306 -1.8125,2.75 -0.02868,7.221313 -0.03125,14.075115 -0.03125,19.8125 0,1.170118 0.803055,2.083554 1.84375,2.75 1.034115,0.662175 2.403244,1.206867 4.0625,1.65625 3.320047,0.899182 7.804733,1.40625 12.75,1.40625 4.945266,0 9.429953,-0.507068 12.75,-1.40625 1.657156,-0.448815 3.053958,-0.990435 4.09375,-1.65625 1.046375,-0.670024 1.8125,-1.59641 1.8125,-2.75 l 0,-19.84375 c 0,-1.183117 -0.819237,-2.062737 -1.84375,-2.71875 C 79.788994,41.094631 78.41538,40.513539 76.75,40.0625 73.429822,39.163238 68.943422,38.6875 64,38.6875 z m 0,2.03125 c 4.793547,-0.0076 9.117222,0.574705 12.1875,1.40625 1.526635,0.413476 2.744682,0.92261 3.5,1.40625 0.379434,0.24298 0.643988,0.482939 0.78125,0.65625 0.137262,0.173311 0.156309,0.249385 0.15625,0.25 -0.01824,0.191549 -0.147411,0.40643 -0.375,0.625 -0.227589,0.21857 -0.555731,0.398355 -0.84375,0.5625 -0.911959,0.519655 -2.053253,0.91739 -3.09375,1.1875 -3.592189,0.932426 -7.209839,1.315535 -10.6875,1.40625 -0.0105,1.68e-4 -0.02075,-1.64e-4 -0.03125,0 -4.823354,0.07555 -9.606411,-0.286592 -13.96875,-1.40625 -0.987853,-0.25755 -1.807236,-0.574545 -2.65625,-1 -0.375836,-0.188343 -0.820866,-0.42962 -1.125,-0.6875 -0.304134,-0.25788 -0.452159,-0.50682 -0.46875,-0.6875 -0.0014,-0.01473 0.02019,-0.07925 0.15625,-0.25 0.136059,-0.170751 0.399798,-0.412011 0.78125,-0.65625 0.781158,-0.500235 1.960743,-1.069332 3.46875,-1.40625 C 56.111953,41.157444 60.363813,40.72548 64,40.71875 z m 16.625,6.46875 0,3.53125 c 0,0.179273 -0.04366,0.424955 -0.0625,0.5 -0.03243,0.131224 -0.27976,0.539298 -0.90625,0.90625 -1.105601,0.647572 -2.366973,1.036432 -3.5,1.34375 -0.0088,0.0024 -0.02244,-0.0024 -0.03125,0 -4.050071,0.984626 -8.274834,1.369598 -12.125,1.375 -4.173981,-0.03206 -8.574557,-0.421551 -12.21875,-1.375 -1.598225,-0.504019 -3.071371,-0.960367 -4.0625,-1.875 -0.192832,-0.179961 -0.249129,-0.293757 -0.28125,-0.40625 -0.0085,-0.02968 -0.03125,-0.192245 -0.03125,-0.46875 l 0,-3.40625 c 1.250256,0.728444 2.698861,1.299317 3.90625,1.59375 4.878985,1.131772 9.730941,1.479837 14.375,1.34375 3.731521,-0.117861 7.52794,-0.343794 11.0625,-1.34375 1.315122,-0.372086 2.665355,-0.940697 3.875,-1.71875 z M 47.40625,53.875 c 1.399607,0.840057 2.95837,1.405683 4.34375,1.75 4.270654,0.969372 8.070011,1.273065 12.25,1.28125 4.184912,-0.0858 8.317303,-0.271608 12.25,-1.28125 1.402621,-0.365895 2.925676,-0.909017 4.09375,-1.5 0.112847,-0.05707 0.170368,-0.118179 0.28125,-0.1875 l 0,3.40625 c 0,0.179271 -0.03929,0.376264 -0.0625,0.46875 -0.02814,0.11387 -0.2723,0.510534 -0.90625,0.90625 -1.463841,0.858794 -3.270736,1.368618 -4.875,1.71875 -0.0094,0.002 -0.02189,-0.002 -0.03125,0 -3.761339,0.727809 -7.201689,1.026121 -10.75,1.03125 -1.790763,0 -3.515992,-0.06829 -5.125,-0.21875 -0.01086,-0.0013 -0.0204,0.0013 -0.03125,0 -3.687037,-0.450392 -6.879133,-0.780891 -9.875,-2.15625 -0.456854,-0.211697 -0.933155,-0.555727 -1.28125,-0.875 -0.163769,-0.150209 -0.231557,-0.27978 -0.28125,-0.4375 0.0048,0.0151 4.77e-4,0.0029 0,-0.0625 -0.0098,-1.274265 -0.003,-2.561611 0,-3.84375 z m 0,6.5625 c 0.383565,0.23404 0.75115,0.561746 1.125,0.71875 3.301529,1.369019 7.088714,1.869622 10.125,2.125 1.831899,0.150447 3.644594,0.219266 5.34375,0.21875 4.197207,-0.06778 8.31611,-0.300946 12.25,-1.28125 a 0.66868,0.66868 0 0 0 0.03125,0 c 1.531657,-0.415923 2.994654,-0.908147 4.34375,-1.6875 l 0,3.4375 0,0.34375 c 0,0.122876 -0.193088,0.523399 -0.9375,1 -0.742741,0.475621 -1.967563,0.959944 -3.5,1.375 -3.065382,0.830166 -7.39523,1.40625 -12.1875,1.40625 -4.792312,0 -9.122172,-0.576039 -12.1875,-1.40625 -1.53244,-0.414996 -2.757215,-0.899375 -3.5,-1.375 -0.738112,-0.472611 -0.90625,-0.847873 -0.90625,-1 l 0,-3.875 z"
         transform="matrix(1.2087475,0,0,1.2087475,-13.359842,-7.7634202)" />
    </g>
  </g>
</svg>
